<?xml version="1.0" standalone="no"?>
<!DOCTYPE svg PUBLIC "-//W3C//DTD SVG 20010904//EN"
 "http://www.w3.org/TR/2001/REC-SVG-20010904/DTD/svg10.dtd">
<svg version="1.0" xmlns="http://www.w3.org/2000/svg"
 width="1280.000000pt" height="393.000000pt" viewBox="0 0 1280.000000 393.000000"
 preserveAspectRatio="xMidYMid meet">

<g transform="translate(0.000000,393.000000) scale(0.100000,-0.100000)"
fill="#000000" stroke="none">
<path d="M1968 3198 l-3 -733 -35 -3 -36 -3 -32 173 c-124 660 -167 874 -175
883 -6 6 -8 -2 -4 -25 10 -60 93 -514 142 -778 26 -139 45 -256 42 -259 -3 -3
-20 -6 -38 -6 l-32 -2 -59 150 c-32 83 -144 373 -250 645 -105 272 -196 507
-202 523 -12 32 -30 37 -20 5 3 -13 95 -252 204 -533 108 -280 222 -575 253
-655 l55 -145 -21 -18 c-11 -10 -27 -17 -35 -15 -8 2 -140 206 -294 453 -153
248 -283 452 -290 454 -18 6 -8 -11 127 -229 70 -113 195 -315 278 -449 l150
-244 -28 -25 -29 -24 -40 43 c-40 44 -396 433 -755 827 -163 178 -201 216
-201 197 0 -2 118 -134 263 -293 621 -683 702 -773 704 -785 2 -6 -6 -23 -17
-36 l-20 -23 -173 130 c-94 71 -286 216 -425 321 -139 105 -258 191 -265 191
-22 0 -1 -16 596 -467 136 -103 247 -192 247 -198 0 -5 -9 -21 -19 -34 l-18
-23 -648 321 c-545 271 -687 338 -654 307 2 -2 294 -149 647 -325 642 -321
644 -322 637 -349 -3 -15 -10 -30 -14 -35 -4 -4 -117 24 -252 62 -673 190
-783 221 -787 216 -3 -3 -3 -7 -1 -10 3 -2 228 -68 500 -145 272 -77 502 -143
512 -146 18 -6 24 -49 9 -70 -5 -8 -89 -4 -307 17 -165 16 -473 44 -685 64
-212 19 -402 37 -423 39 -26 3 -37 1 -34 -7 2 -7 54 -16 133 -24 71 -6 381
-34 689 -62 308 -28 575 -54 593 -57 31 -5 33 -7 30 -42 l-3 -37 -85 -7 c-366
-31 -959 -91 -975 -98 -17 -7 -16 -9 10 -9 29 -1 336 26 809 70 201 18 240 20
247 8 13 -21 11 -59 -3 -64 -7 -2 -317 -90 -688 -195 -371 -105 -681 -193
-688 -195 -26 -10 -2 -24 26 -15 15 5 293 84 617 175 325 92 626 177 670 190
44 12 83 20 87 16 4 -4 10 -20 13 -36 l6 -30 -480 -240 c-264 -131 -477 -243
-475 -247 3 -4 222 101 486 233 l482 241 18 -24 c9 -12 18 -29 18 -35 0 -7
-114 -98 -252 -203 -413 -310 -893 -672 -897 -676 -2 -2 -1 -7 2 -11 4 -3 25
7 47 23 81 60 761 574 929 703 97 73 180 135 186 137 6 3 21 -9 32 -25 l22
-29 -231 -253 c-127 -140 -289 -318 -360 -397 -72 -79 -127 -146 -123 -150 4
-4 21 9 38 28 17 19 164 181 327 360 163 179 311 342 329 362 l33 37 29 -21
c16 -12 29 -25 29 -28 0 -4 -68 -116 -151 -251 -152 -244 -554 -895 -591 -956
-11 -18 -15 -33 -10 -33 6 0 53 69 105 153 52 83 222 357 377 607 155 250 285
459 290 463 4 5 22 1 39 -7 l31 -16 -24 -63 c-91 -241 -225 -589 -281 -732
-69 -176 -86 -228 -67 -210 6 6 76 179 155 385 257 667 231 605 262 603 16 -1
32 -6 37 -11 5 -5 -8 -100 -31 -223 -22 -118 -56 -304 -76 -414 -20 -110 -54
-292 -75 -405 -64 -341 -71 -382 -66 -388 4 -3 8 -3 10 -1 1 2 51 260 110 574
58 314 118 632 133 708 l26 137 39 0 38 0 0 -540 c0 -353 3 -540 10 -540 7 0
10 187 10 540 l0 540 40 0 c22 0 40 -4 40 -9 0 -4 38 -210 85 -457 47 -247
106 -561 132 -699 25 -137 48 -252 50 -254 14 -18 9 29 -17 170 -180 968 -231
1252 -223 1260 4 4 21 9 37 11 l28 3 192 -497 c170 -442 206 -528 206 -487 0
6 -54 151 -121 323 -67 171 -141 363 -164 426 -24 63 -55 145 -69 182 l-26 68
30 15 c16 8 31 15 34 15 2 0 15 -17 27 -37 13 -21 129 -209 259 -418 130 -209
292 -469 359 -577 67 -109 127 -198 133 -198 5 0 1 15 -9 32 -22 37 -367 596
-586 949 -81 130 -149 243 -152 252 -4 9 4 22 22 35 l28 20 175 -190 c96 -105
253 -277 348 -382 213 -235 200 -221 208 -213 3 3 -58 77 -137 164 -114 126
-424 468 -555 613 l-22 25 23 29 23 29 119 -89 c65 -50 249 -189 408 -309 160
-120 363 -274 453 -342 89 -68 170 -127 179 -130 46 -18 -20 37 -309 254 -671
504 -828 625 -828 637 0 6 9 22 18 34 l18 24 482 -241 c265 -133 482 -237 482
-231 0 6 -214 117 -476 248 l-475 237 6 30 c3 16 9 32 13 36 6 6 603 -160
1257 -348 127 -37 172 -44 148 -23 -4 4 -314 93 -688 199 -374 106 -686 194
-692 196 -7 3 -13 15 -13 27 1 54 -21 54 538 3 476 -42 587 -49 542 -32 -12 4
-685 70 -980 95 l-85 7 -3 37 c-4 44 -40 36 363 73 154 14 397 37 540 50 143
13 321 30 395 36 74 7 139 16 145 21 16 14 -62 9 -453 -27 -207 -19 -498 -46
-647 -60 -148 -13 -287 -27 -307 -30 -36 -5 -37 -4 -44 30 -3 20 -4 38 -1 41
2 3 233 70 513 150 279 79 510 147 513 149 22 23 -24 11 -714 -185 -159 -45
-299 -83 -309 -84 -21 -1 -45 50 -30 64 5 4 295 151 644 325 349 175 637 319
639 321 32 30 -108 -36 -654 -307 l-648 -322 -18 24 c-26 33 -24 44 14 71 67
47 783 591 802 609 11 11 15 19 8 19 -10 0 -171 -119 -609 -452 -128 -96 -237
-179 -243 -182 -13 -9 -52 33 -48 51 2 12 203 236 705 785 144 158 262 290
262 293 0 21 -46 -25 -257 -258 -213 -236 -591 -650 -699 -766 l-40 -43 -29
24 -29 25 89 144 c49 79 163 263 254 409 178 288 221 358 221 366 0 25 -54
-56 -289 -436 -148 -239 -275 -443 -283 -454 -13 -18 -16 -18 -46 -2 l-32 16
26 68 c14 37 38 101 54 142 15 41 108 280 205 530 213 547 237 611 230 618 -3
3 -7 3 -9 1 -4 -5 -148 -375 -285 -729 -50 -129 -123 -320 -164 -425 l-74
-190 -32 2 c-18 0 -35 4 -38 6 -5 5 40 268 82 477 42 212 105 583 101 588 -9
8 -10 1 -60 -268 -14 -74 -53 -278 -86 -453 -33 -175 -60 -322 -60 -328 0 -6
-17 -9 -37 -7 l-38 3 -3 733 c-1 473 -6 732 -12 732 -6 0 -11 -259 -12 -732z
m147 -773 c373 -98 491 -585 205 -848 -116 -106 -283 -155 -431 -124 -104 21
-175 56 -251 126 -283 260 -166 746 203 845 72 19 201 20 274 1z"/>
<path d="M9646 3579 c-71 -27 -131 -51 -134 -53 -2 -3 5 -16 16 -31 47 -60 47
-58 47 -1275 0 -1190 -1 -1228 -41 -1261 -8 -6 -14 -15 -14 -20 0 -5 74 -9
163 -9 l164 0 -26 52 -26 53 -3 1297 c-1 714 -6 1298 -10 1297 -4 0 -65 -23
-136 -50z"/>
<path d="M10365 3579 c-71 -27 -131 -52 -134 -54 -2 -3 4 -13 13 -24 10 -11
25 -41 34 -68 15 -43 17 -155 20 -1153 3 -1149 0 -1242 -38 -1307 -11 -19 -20
-36 -20 -39 0 -2 74 -4 165 -4 l166 0 -21 28 c-11 15 -24 51 -30 81 -6 34 -10
509 -10 1322 0 698 -3 1269 -7 1269 -5 -1 -66 -23 -138 -51z"/>
<path d="M4690 3454 c-19 -3 -73 -14 -120 -25 -253 -62 -435 -221 -496 -434
-13 -45 -15 -81 -11 -150 16 -268 179 -447 522 -574 61 -22 207 -70 325 -106
327 -101 470 -170 561 -273 77 -88 101 -160 100 -298 -1 -248 -106 -429 -303
-522 -119 -57 -191 -73 -358 -79 -125 -5 -157 -2 -234 16 -230 55 -422 218
-547 466 -28 55 -52 101 -53 102 -1 2 -35 -49 -75 -112 l-73 -115 37 -49 c75
-104 184 -188 330 -257 182 -86 379 -120 645 -111 189 7 317 26 445 68 281 93
431 268 465 544 26 207 -29 377 -164 502 -135 127 -263 184 -711 316 -315 93
-420 137 -532 221 -139 105 -191 261 -148 445 53 222 241 355 520 368 343 16
616 -137 744 -417 l28 -63 26 139 c14 77 29 158 33 182 l7 42 -64 29 c-99 45
-239 89 -372 117 -100 21 -155 26 -307 29 -102 2 -201 1 -220 -1z"/>
<path d="M6543 3262 c-67 -26 -125 -50 -129 -54 -4 -5 -1 -16 7 -25 34 -41 43
-80 47 -220 l4 -143 -127 0 -126 0 3 -27 c3 -30 -10 -27 160 -31 l87 -2 3
-817 c4 -904 1 -859 70 -938 42 -48 105 -75 173 -75 62 0 145 46 172 95 32 57
30 69 -8 49 -62 -32 -142 -16 -171 34 -15 24 -17 119 -24 833 -4 524 -4 808 3
812 5 3 76 7 156 8 l147 2 0 28 0 28 -152 3 -153 3 -3 243 c-1 133 -6 242 -10
242 -4 -1 -62 -22 -129 -48z"/>
<path d="M8139 2810 c-389 -66 -690 -349 -765 -719 -25 -125 -16 -345 19 -462
48 -161 115 -280 219 -395 254 -277 708 -383 1052 -245 158 63 303 187 366
311 38 76 38 86 -1 27 -83 -126 -242 -220 -442 -262 -102 -22 -303 -19 -404 5
-363 87 -586 380 -605 795 l-3 70 784 5 785 5 -3 65 c-3 92 -27 235 -50 303
-77 222 -237 382 -459 456 -128 43 -364 63 -493 41z m377 -104 c199 -63 332
-212 394 -439 20 -72 42 -253 33 -269 -2 -5 -311 -8 -685 -8 l-681 0 7 66 c10
94 58 236 110 325 102 174 262 298 445 344 89 23 275 13 377 -19z"/>
<path d="M11736 2810 c-270 -43 -488 -184 -599 -389 l-27 -48 86 -57 c47 -31
90 -56 94 -56 5 0 16 24 25 53 66 201 221 362 410 424 66 21 99 26 190 27 277
1 415 -111 460 -373 14 -78 16 -154 13 -450 -5 -403 -6 -411 -84 -570 -110
-223 -313 -341 -589 -341 -353 0 -549 181 -548 505 0 160 40 254 151 356 130
121 287 181 688 264 188 38 289 67 319 89 14 11 6 10 -31 -4 -59 -22 -96 -28
-399 -70 -442 -61 -645 -133 -795 -283 -94 -94 -144 -208 -156 -356 -13 -156
36 -283 155 -401 126 -125 284 -185 516 -197 254 -12 433 48 584 197 72 70
116 129 159 212 l27 53 5 -165 c6 -171 13 -203 57 -242 29 -27 88 -48 152 -54
l59 -7 -26 54 -27 54 -6 675 c-5 572 -8 683 -21 727 -59 194 -172 300 -377
355 -87 23 -364 34 -465 18z"/>
<path d="M6705 814 l-40 -35 30 6 c47 10 80 29 80 45 0 27 -30 20 -70 -16z"/>
<path d="M4501 749 c-82 -16 -143 -83 -161 -177 -20 -108 25 -214 111 -260 60
-32 149 -28 207 10 88 58 119 204 68 314 -42 91 -125 132 -225 113z m117 -29
c52 -32 72 -87 72 -200 0 -150 -47 -220 -145 -220 -98 0 -145 70 -145 220 0
107 18 161 65 198 36 29 108 30 153 2z"/>
<path d="M10229 751 c-50 -16 -68 -31 -84 -74 -14 -36 -15 -51 -5 -86 14 -52
39 -68 147 -97 105 -28 123 -43 123 -100 0 -35 -5 -47 -31 -68 -34 -29 -27
-36 7 -8 32 26 44 55 44 110 0 81 -22 100 -167 142 -85 24 -103 39 -103 86 0
56 36 84 107 84 67 0 94 -15 113 -60 18 -44 30 -37 30 20 l0 49 -42 -2 c-24
-1 -59 2 -78 5 -19 4 -47 3 -61 -1z"/>
<path d="M5000 741 c-41 -4 -64 -9 -51 -11 19 -4 40 -33 93 -125 l69 -120 -3
-85 c-3 -80 -4 -84 -28 -91 -14 -4 12 -7 60 -7 47 1 73 3 58 5 l-28 4 0 99 0
98 57 100 c32 55 69 107 83 116 24 15 23 15 -45 15 l-70 -1 35 -15 c19 -8 36
-16 38 -18 1 -1 -22 -44 -52 -94 -62 -106 -48 -109 -125 26 -46 81 -49 93 -21
93 11 0 20 5 20 10 0 6 -3 9 -7 8 -5 -1 -42 -4 -83 -7z"/>
<path d="M5580 740 c-47 -3 -73 -7 -59 -8 15 -1 29 -8 32 -16 8 -22 7 -379 -1
-392 -4 -7 -16 -14 -27 -17 -11 -2 58 -5 153 -6 l172 -1 0 65 c0 36 -3 65 -8
65 -4 0 -16 -26 -28 -57 l-20 -58 -92 -3 -92 -3 0 101 0 100 39 0 c36 0 40 -3
57 -42 l19 -43 3 47 c2 27 2 69 0 95 l-3 48 -19 -42 c-17 -40 -21 -43 -57 -43
l-39 0 0 100 0 101 86 -3 87 -3 20 -52 c11 -29 24 -53 28 -53 5 0 9 27 9 60
l0 60 -44 0 c-24 0 -63 2 -87 4 -24 2 -82 0 -129 -4z"/>
<path d="M6705 741 c-40 -4 -59 -9 -45 -11 l25 -5 0 -205 0 -204 -25 -7 c-15
-4 8 -7 55 -7 47 0 70 3 55 7 l-25 7 0 204 c0 205 0 205 23 208 12 2 22 8 22
13 0 5 -3 8 -7 7 -5 -1 -39 -4 -78 -7z"/>
<path d="M7132 618 c-28 -73 -64 -167 -80 -208 -18 -49 -35 -79 -50 -86 -40
-20 -36 -24 24 -24 l59 0 -24 19 -25 19 21 53 20 54 79 0 79 0 22 -63 23 -63
-23 -9 c-16 -6 1 -9 58 -8 47 0 70 3 55 7 -27 8 -38 32 -122 276 -28 83 -54
154 -58 158 -4 4 -30 -52 -58 -125z m65 -63 l31 -95 -69 0 c-38 0 -69 3 -69 6
0 14 65 184 70 184 3 0 20 -43 37 -95z"/>
<path d="M7997 633 c-26 -65 -61 -158 -80 -208 -27 -74 -38 -93 -62 -105 l-30
-15 33 -3 c18 -2 45 -1 60 1 27 4 27 4 4 12 -27 9 -26 32 2 99 l15 36 75 0 76
0 16 -37 c26 -64 29 -100 8 -106 -11 -3 17 -5 61 -4 44 0 70 2 58 4 -12 2 -26
10 -31 16 -5 7 -39 100 -76 207 -38 107 -71 201 -75 208 -5 9 -25 -31 -54
-105z m56 -73 c15 -41 27 -81 27 -87 0 -9 -20 -13 -65 -13 -36 0 -65 3 -65 8
0 19 65 181 71 174 3 -4 18 -41 32 -82z"/>
<path d="M10827 743 c-13 -21 -137 -350 -137 -361 1 -4 9 9 18 28 17 35 17 35
93 38 l75 3 22 -63 c27 -77 27 -76 0 -81 -13 -2 15 -4 62 -4 47 0 75 2 63 4
-12 2 -26 10 -32 17 -5 6 -42 104 -81 216 -38 112 -72 205 -74 207 -2 3 -6 1
-9 -4z m14 -190 c16 -49 29 -89 29 -90 0 -2 -31 -3 -70 -3 -38 0 -70 2 -70 4
0 3 27 75 59 160 7 16 14 26 18 22 3 -3 19 -45 34 -93z"/>
<path d="M11996 715 c-27 -64 -116 -304 -116 -313 1 -4 8 5 16 21 14 26 18 27
89 27 l74 0 20 -55 c27 -70 26 -83 -1 -88 -13 -2 15 -4 62 -4 47 0 75 2 63 4
-12 2 -26 10 -31 16 -5 7 -39 98 -76 202 -90 256 -80 238 -100 190z m25 -157
c16 -46 29 -86 29 -90 0 -5 -29 -8 -65 -8 -76 0 -76 -1 -40 96 14 38 28 75 31
83 7 21 13 10 45 -81z"/>
<path d="M3990 731 l25 -7 3 -159 c3 -179 -2 -238 -24 -260 -14 -13 -13 -15 4
-15 11 0 30 9 43 19 23 19 24 24 29 217 l5 198 25 7 c15 4 -8 7 -55 7 -47 0
-70 -3 -55 -7z"/>
<path d="M6090 731 l25 -7 0 -204 0 -204 -25 -7 c-15 -4 11 -7 60 -7 69 0 79
2 53 9 l-33 10 0 94 0 95 49 0 c63 0 86 -26 96 -107 9 -78 26 -103 69 -103 40
0 66 8 66 21 0 6 -8 5 -19 0 -25 -14 -41 6 -48 61 -8 62 -28 95 -70 116 l-37
19 37 12 c48 16 77 54 77 100 0 84 -52 111 -212 110 -62 -1 -102 -4 -88 -8z
m203 -21 c32 -25 43 -76 27 -124 -15 -45 -38 -58 -98 -54 l-47 3 -3 98 -3 97
49 0 c35 0 57 -6 75 -20z"/>
<path d="M8453 733 l27 -4 -2 -207 -3 -206 -25 -7 c-14 -4 12 -7 60 -7 47 1
73 3 58 5 -14 2 -28 10 -31 16 -2 7 -2 51 1 100 l5 87 39 0 c71 0 89 -23 103
-137 4 -29 14 -58 22 -64 21 -18 80 -16 99 3 15 15 14 16 -17 15 -33 -2 -33
-2 -45 60 -12 67 -24 87 -67 113 l-28 18 29 10 c50 17 72 50 72 104 0 52 -19
81 -66 98 -14 6 -78 9 -142 9 -64 -1 -105 -4 -89 -6z m196 -18 c34 -17 41 -33
41 -89 0 -29 -7 -52 -21 -70 -17 -22 -28 -26 -74 -26 -62 0 -62 -1 -57 118 l4
82 39 0 c22 0 53 -7 68 -15z"/>
<path d="M8990 678 c0 -69 8 -68 35 5 l18 47 49 0 48 0 -2 -207 -3 -207 -25
-7 c-14 -4 11 -7 60 -7 49 0 74 3 60 7 l-25 7 -3 207 -2 207 49 0 49 0 17 -50
c24 -71 35 -71 35 -1 l0 61 -180 0 -180 0 0 -62z"/>
<path d="M9573 733 l27 -4 -2 -207 -3 -206 -25 -7 c-14 -4 55 -7 153 -8 l177
-1 0 65 c0 36 -3 65 -8 65 -4 0 -16 -26 -27 -57 l-20 -58 -92 -3 -93 -3 0 99
c0 54 2 101 5 103 2 3 20 3 40 1 30 -4 39 -11 52 -41 l17 -36 4 42 c2 23 2 64
0 90 l-3 48 -19 -42 c-17 -40 -21 -43 -57 -43 l-39 0 0 100 0 100 86 0 85 0
15 -37 c32 -80 33 -81 33 -15 l1 62 -167 -1 c-93 -1 -156 -4 -140 -6z"/>
<path d="M11243 724 l27 -15 2 -177 2 -177 6 164 c6 185 -1 181 85 56 27 -38
83 -117 124 -174 l76 -104 5 207 5 208 30 13 c29 13 27 13 -35 13 -57 0 -62
-1 -37 -11 l27 -11 0 -155 c0 -85 -4 -151 -8 -145 -5 5 -59 80 -121 167 l-113
157 -51 0 c-52 -1 -52 -1 -24 -16z"/>
<path d="M12423 733 l27 -4 -2 -207 -3 -206 -25 -7 c-14 -4 53 -7 148 -8 l172
-1 0 65 c0 36 -3 65 -8 65 -4 0 -16 -26 -28 -57 l-20 -58 -87 -3 -86 -3 -6 33
c-4 25 -1 339 4 380 1 4 13 9 29 11 15 2 -11 4 -58 4 -47 0 -73 -2 -57 -4z"/>
<path d="M10130 365 l0 -64 43 0 c23 1 71 -2 107 -4 58 -5 59 -5 10 2 -74 9
-96 23 -125 81 -14 28 -28 50 -30 50 -3 0 -5 -29 -5 -65z"/>
<path d="M3907 374 c-15 -15 -7 -63 12 -74 29 -15 56 -13 43 3 -6 7 -10 26 -9
43 2 22 -3 30 -18 32 -12 2 -24 0 -28 -4z"/>
<path d="M11271 342 c-1 -7 -13 -18 -28 -24 l-28 -12 33 -4 c18 -2 45 -2 60 0
l27 4 -26 11 c-15 7 -29 18 -32 25 -4 10 -6 10 -6 0z"/>
<path d="M10645 320 l-30 -15 33 -3 c18 -2 44 -2 57 0 l25 3 -28 15 c-24 14
-30 14 -57 0z"/>
<path d="M11825 320 l-30 -15 33 -3 c18 -2 45 -2 60 0 l27 3 -30 15 c-27 14
-33 14 -60 0z"/>
</g>
</svg>
