<?xml version="1.0" encoding="UTF-8" standalone="no"?>
<!-- Created with Inkscape (http://www.inkscape.org/) -->

<svg
   version="1.1"
   id="svg1"
   width="793.70135"
   height="1122.52"
   viewBox="0 0 793.70135 1122.52"
   sodipodi:docname="738e7671-a773-4094-bf6e-dc6f9781a5d3.ai"
   xmlns:inkscape="http://www.inkscape.org/namespaces/inkscape"
   xmlns:sodipodi="http://sodipodi.sourceforge.net/DTD/sodipodi-0.dtd"
   xmlns="http://www.w3.org/2000/svg"
   xmlns:svg="http://www.w3.org/2000/svg">
  <defs
     id="defs1">
    <clipPath
       clipPathUnits="userSpaceOnUse"
       id="clipPath38">
      <path
         d="M 0,841.89 H 595.276 V 0 H 0 Z"
         transform="translate(-341.30901,-446.39181)"
         id="path38" />
    </clipPath>
  </defs>
  <sodipodi:namedview
     id="namedview1"
     pagecolor="#ffffff"
     bordercolor="#000000"
     borderopacity="0.25"
     inkscape:showpageshadow="2"
     inkscape:pageopacity="0.0"
     inkscape:pagecheckerboard="0"
     inkscape:deskcolor="#d1d1d1">
    <inkscape:page
       x="0"
       y="0"
       inkscape:label="1"
       id="page1"
       width="793.70135"
       height="1122.52"
       margin="382.35867 176.19067 310.63867 176.19467"
       bleed="0" />
  </sodipodi:namedview>
  <g
     id="layer-MC0"
     inkscape:groupmode="layer"
     inkscape:label="Capa 3">
    <path
       id="path1"
       d="M 0,0 -16.474,86.154"
       style="fill:#ffffff;fill-opacity:1;fill-rule:nonzero;stroke:#1d1d1b;stroke-width:1;stroke-linecap:butt;stroke-linejoin:miter;stroke-miterlimit:10;stroke-dasharray:none;stroke-opacity:1"
       transform="matrix(1.3333333,0,0,-1.3333333,386.49547,471.584)" />
    <path
       id="path2"
       d="M 0,0 -48.118,75.24"
       style="fill:#ffffff;fill-opacity:1;fill-rule:nonzero;stroke:#1d1d1b;stroke-width:1;stroke-linecap:butt;stroke-linejoin:miter;stroke-miterlimit:10;stroke-dasharray:none;stroke-opacity:1"
       transform="matrix(1.3333333,0,0,-1.3333333,367.81133,480.9888)" />
    <path
       id="path3"
       d="M 0,0 -71.411,54.826"
       style="fill:#ffffff;fill-opacity:1;fill-rule:nonzero;stroke:#1d1d1b;stroke-width:1;stroke-linecap:butt;stroke-linejoin:miter;stroke-miterlimit:10;stroke-dasharray:none;stroke-opacity:1"
       transform="matrix(1.3333333,0,0,-1.3333333,352.42827,496.15573)" />
    <path
       id="path4"
       d="M 0,0 -88.311,22.713"
       style="fill:#ffffff;fill-opacity:1;fill-rule:nonzero;stroke:#1d1d1b;stroke-width:1;stroke-linecap:butt;stroke-linejoin:miter;stroke-miterlimit:10;stroke-dasharray:none;stroke-opacity:1"
       transform="matrix(1.3333333,0,0,-1.3333333,343.58213,511.27253)" />
    <path
       id="path5"
       d="M 0,0 -89.511,-7.838"
       style="fill:#ffffff;fill-opacity:1;fill-rule:nonzero;stroke:#1d1d1b;stroke-width:1;stroke-linecap:butt;stroke-linejoin:miter;stroke-miterlimit:10;stroke-dasharray:none;stroke-opacity:1"
       transform="matrix(1.3333333,0,0,-1.3333333,341.41653,532.39093)" />
    <path
       id="path6"
       d="M 0,0 -81.429,-39.161"
       style="fill:#ffffff;fill-opacity:1;fill-rule:nonzero;stroke:#1d1d1b;stroke-width:1;stroke-linecap:butt;stroke-linejoin:miter;stroke-miterlimit:10;stroke-dasharray:none;stroke-opacity:1"
       transform="matrix(1.3333333,0,0,-1.3333333,348.84053,552.05627)" />
    <path
       id="path7"
       d="M 0,0 -100.257,-73.715"
       style="fill:#ffffff;fill-opacity:1;fill-rule:nonzero;stroke:#1d1d1b;stroke-width:1;stroke-linecap:butt;stroke-linejoin:miter;stroke-miterlimit:10;stroke-dasharray:none;stroke-opacity:1"
       transform="matrix(1.3333333,0,0,-1.3333333,359.50947,556.97067)" />
    <path
       id="path8"
       d="M 0,0 120.967,32.25"
       style="fill:#ffffff;fill-opacity:1;fill-rule:nonzero;stroke:#1d1d1b;stroke-width:1;stroke-linecap:butt;stroke-linejoin:miter;stroke-miterlimit:10;stroke-dasharray:none;stroke-opacity:1"
       transform="matrix(1.3333333,0,0,-1.3333333,187.55147,585.84227)" />
    <path
       id="path9"
       d="M 0,0 132.13,-11.979"
       style="fill:#ffffff;fill-opacity:1;fill-rule:nonzero;stroke:#1d1d1b;stroke-width:1;stroke-linecap:butt;stroke-linejoin:miter;stroke-miterlimit:10;stroke-dasharray:none;stroke-opacity:1"
       transform="matrix(1.3333333,0,0,-1.3333333,176.25493,507.21293)" />
    <path
       id="path10"
       d="M 0,0 118.613,-57.288"
       style="fill:#ffffff;fill-opacity:1;fill-rule:nonzero;stroke:#1d1d1b;stroke-width:1;stroke-linecap:butt;stroke-linejoin:miter;stroke-miterlimit:10;stroke-dasharray:none;stroke-opacity:1"
       transform="matrix(1.3333333,0,0,-1.3333333,198.2204,430.8288)" />
    <path
       id="path11"
       d="M 0,0 85.195,-92.144"
       style="fill:#ffffff;fill-opacity:1;fill-rule:nonzero;stroke:#1d1d1b;stroke-width:1;stroke-linecap:butt;stroke-linejoin:miter;stroke-miterlimit:10;stroke-dasharray:none;stroke-opacity:1"
       transform="matrix(1.3333333,0,0,-1.3333333,250.93733,368.99733)" />
    <path
       id="path12"
       d="M 0,0 48.481,-117.165"
       style="fill:#ffffff;fill-opacity:1;fill-rule:nonzero;stroke:#1d1d1b;stroke-width:1;stroke-linecap:butt;stroke-linejoin:miter;stroke-miterlimit:10;stroke-dasharray:none;stroke-opacity:1"
       transform="matrix(1.3333333,0,0,-1.3333333,315.57853,324.76827)" />
    <path
       id="path13"
       d="M 0,0 -0.191,122.551 Z"
       style="fill:#ffffff;fill-opacity:1;fill-rule:nonzero;stroke:none"
       transform="matrix(1.3333333,0,0,-1.3333333,398.3796,474.0412)" />
    <path
       id="path14"
       d="M 0,0 -0.191,122.551"
       style="fill:none;stroke:#1d1d1b;stroke-width:1;stroke-linecap:butt;stroke-linejoin:miter;stroke-miterlimit:10;stroke-dasharray:none;stroke-opacity:1"
       transform="matrix(1.3333333,0,0,-1.3333333,398.37987,474.0412)" />
    <path
       id="path15"
       d="M 0,0 16.003,86.154"
       style="fill:#ffffff;fill-opacity:1;fill-rule:nonzero;stroke:#1d1d1b;stroke-width:1;stroke-linecap:butt;stroke-linejoin:miter;stroke-miterlimit:10;stroke-dasharray:none;stroke-opacity:1"
       transform="matrix(1.3333333,0,0,-1.3333333,408.46093,471.584)" />
    <path
       id="path16"
       d="M 0,0 44.245,113.06"
       style="fill:#ffffff;fill-opacity:1;fill-rule:nonzero;stroke:#1d1d1b;stroke-width:1;stroke-linecap:butt;stroke-linejoin:miter;stroke-miterlimit:10;stroke-dasharray:none;stroke-opacity:1"
       transform="matrix(1.3333333,0,0,-1.3333333,419.12987,475.51547)" />
    <path
       id="path17"
       d="M 0,0 -48.952,-75.24"
       style="fill:#ffffff;fill-opacity:1;fill-rule:nonzero;stroke:#1d1d1b;stroke-width:1;stroke-linecap:butt;stroke-linejoin:miter;stroke-miterlimit:10;stroke-dasharray:none;stroke-opacity:1"
       transform="matrix(1.3333333,0,0,-1.3333333,491.302,380.6688)" />
    <path
       id="path18"
       d="M 0,0 84.106,86.909"
       style="fill:#ffffff;fill-opacity:1;fill-rule:nonzero;stroke:#1d1d1b;stroke-width:1;stroke-linecap:butt;stroke-linejoin:miter;stroke-miterlimit:10;stroke-dasharray:none;stroke-opacity:1"
       transform="matrix(1.3333333,0,0,-1.3333333,435.01613,484.87627)" />
    <path
       id="path19"
       d="M 0,0 72.015,54.807"
       style="fill:#ffffff;fill-opacity:1;fill-rule:nonzero;stroke:#1d1d1b;stroke-width:1;stroke-linecap:butt;stroke-linejoin:miter;stroke-miterlimit:10;stroke-dasharray:none;stroke-opacity:1"
       transform="matrix(1.3333333,0,0,-1.3333333,442.35053,496.13067)" />
    <path
       id="path20"
       d="M 0,0 109.2,53.042"
       style="fill:#ffffff;fill-opacity:1;fill-rule:nonzero;stroke:#1d1d1b;stroke-width:1;stroke-linecap:butt;stroke-linejoin:miter;stroke-miterlimit:10;stroke-dasharray:none;stroke-opacity:1"
       transform="matrix(1.3333333,0,0,-1.3333333,448.6264,501.55187)" />
    <path
       id="path21"
       d="M 0,0 88.279,23.093"
       style="fill:#ffffff;fill-opacity:1;fill-rule:nonzero;stroke:#1d1d1b;stroke-width:1;stroke-linecap:butt;stroke-linejoin:miter;stroke-miterlimit:10;stroke-dasharray:none;stroke-opacity:1"
       transform="matrix(1.3333333,0,0,-1.3333333,452.67227,511.27253)" />
    <path
       id="path22"
       d="M 0,0 123.581,11.979"
       style="fill:#ffffff;fill-opacity:1;fill-rule:nonzero;stroke:#1d1d1b;stroke-width:1;stroke-linecap:butt;stroke-linejoin:miter;stroke-miterlimit:10;stroke-dasharray:none;stroke-opacity:1"
       transform="matrix(1.3333333,0,0,-1.3333333,452.67227,523.18453)" />
    <path
       id="path23"
       d="M 0,0 90.71,-7.838"
       style="fill:#ffffff;fill-opacity:1;fill-rule:nonzero;stroke:#1d1d1b;stroke-width:1;stroke-linecap:butt;stroke-linejoin:miter;stroke-miterlimit:10;stroke-dasharray:none;stroke-opacity:1"
       transform="matrix(1.3333333,0,0,-1.3333333,455.07867,532.39093)" />
    <path
       id="path24"
       d="M 0,0 122.379,-34.093"
       style="fill:#ffffff;fill-opacity:1;fill-rule:nonzero;stroke:#1d1d1b;stroke-width:1;stroke-linecap:butt;stroke-linejoin:miter;stroke-miterlimit:10;stroke-dasharray:none;stroke-opacity:1"
       transform="matrix(1.3333333,0,0,-1.3333333,446.116,540.38467)" />
    <path
       id="path25"
       d="M 0,0 81.9,-39.161"
       style="fill:#ffffff;fill-opacity:1;fill-rule:nonzero;stroke:#1d1d1b;stroke-width:1;stroke-linecap:butt;stroke-linejoin:miter;stroke-miterlimit:10;stroke-dasharray:none;stroke-opacity:1"
       transform="matrix(1.3333333,0,0,-1.3333333,448.6264,552.05627)" />
    <path
       id="path26"
       d="M 0,0 -58.325,-65.219"
       style="fill:#ffffff;fill-opacity:1;fill-rule:nonzero;stroke:#1d1d1b;stroke-width:1;stroke-linecap:butt;stroke-linejoin:miter;stroke-miterlimit:10;stroke-dasharray:none;stroke-opacity:1"
       transform="matrix(1.3333333,0,0,-1.3333333,359.50947,568.2984)" />
    <path
       id="path27"
       d="M 0,0 -64.552,-102.481"
       style="fill:#ffffff;fill-opacity:1;fill-rule:nonzero;stroke:#1d1d1b;stroke-width:1;stroke-linecap:butt;stroke-linejoin:miter;stroke-miterlimit:10;stroke-dasharray:none;stroke-opacity:1"
       transform="matrix(1.3333333,0,0,-1.3333333,367.81133,574.5168)" />
    <path
       id="path28"
       d="M 0,0 -29.835,-84.748"
       style="fill:#ffffff;fill-opacity:1;fill-rule:nonzero;stroke:#1d1d1b;stroke-width:1;stroke-linecap:butt;stroke-linejoin:miter;stroke-miterlimit:10;stroke-dasharray:none;stroke-opacity:1"
       transform="matrix(1.3333333,0,0,-1.3333333,375.5128,578.50373)" />
    <path
       id="path29"
       d="M 0,0 -24.476,-121.144"
       style="fill:#ffffff;fill-opacity:1;fill-rule:nonzero;stroke:#1d1d1b;stroke-width:1;stroke-linecap:butt;stroke-linejoin:miter;stroke-miterlimit:10;stroke-dasharray:none;stroke-opacity:1"
       transform="matrix(1.3333333,0,0,-1.3333333,389.00587,578.50373)" />
    <path
       id="path30"
       d="M 0,0 -0.191,87.767 Z"
       style="fill:#ffffff;fill-opacity:1;fill-rule:nonzero;stroke:none"
       transform="matrix(1.3333333,0,0,-1.3333333,398.3796,700.1008)" />
    <path
       id="path31"
       d="M 0,0 0.191,-87.767"
       style="fill:none;stroke:#1d1d1b;stroke-width:1;stroke-linecap:butt;stroke-linejoin:miter;stroke-miterlimit:10;stroke-dasharray:none;stroke-opacity:1"
       transform="matrix(1.3333333,0,0,-1.3333333,398.12547,583.078)" />
    <path
       id="path32"
       d="M 0,0 22.593,-116.57"
       style="fill:#ffffff;fill-opacity:1;fill-rule:nonzero;stroke:#1d1d1b;stroke-width:1;stroke-linecap:butt;stroke-linejoin:miter;stroke-miterlimit:10;stroke-dasharray:none;stroke-opacity:1"
       transform="matrix(1.3333333,0,0,-1.3333333,408.46093,582.14507)" />
    <path
       id="path33"
       d="M 0,0 32.007,-82.423"
       style="fill:#ffffff;fill-opacity:1;fill-rule:nonzero;stroke:#1d1d1b;stroke-width:1;stroke-linecap:butt;stroke-linejoin:miter;stroke-miterlimit:10;stroke-dasharray:none;stroke-opacity:1"
       transform="matrix(1.3333333,0,0,-1.3333333,419.12987,579.1464)" />
    <path
       id="path34"
       d="M 0,0 70.603,-111.494"
       style="fill:#ffffff;fill-opacity:1;fill-rule:nonzero;stroke:#1d1d1b;stroke-width:1;stroke-linecap:butt;stroke-linejoin:miter;stroke-miterlimit:10;stroke-dasharray:none;stroke-opacity:1"
       transform="matrix(1.3333333,0,0,-1.3333333,422.26787,566.18493)" />
    <path
       id="path35"
       d="M 0,0 59.75,-65.219"
       style="fill:#ffffff;fill-opacity:1;fill-rule:nonzero;stroke:#1d1d1b;stroke-width:1;stroke-linecap:butt;stroke-linejoin:miter;stroke-miterlimit:10;stroke-dasharray:none;stroke-opacity:1"
       transform="matrix(1.3333333,0,0,-1.3333333,436.73867,568.2984)" />
    <path
       id="path36"
       d="M 0,0 95.55,-71.411"
       style="fill:#ffffff;fill-opacity:1;fill-rule:nonzero;stroke:#1d1d1b;stroke-width:1;stroke-linecap:butt;stroke-linejoin:miter;stroke-miterlimit:10;stroke-dasharray:none;stroke-opacity:1"
       transform="matrix(1.3333333,0,0,-1.3333333,442.97813,560.042)" />
  </g>
  <g
     id="layer-MC1"
     inkscape:groupmode="layer"
     inkscape:label="Capa 2">
    <path
       id="path37"
       d="m 0,0 c 0,-23.091 -19.124,-41.81 -42.715,-41.81 -23.591,0 -42.715,18.719 -42.715,41.81 0,23.091 19.124,41.81 42.715,41.81 C -19.124,41.81 0,23.091 0,0"
       style="fill:#ffffff;fill-opacity:1;fill-rule:nonzero;stroke:#1d1d1b;stroke-width:1;stroke-linecap:butt;stroke-linejoin:miter;stroke-miterlimit:10;stroke-dasharray:none;stroke-opacity:1"
       transform="matrix(1.3333333,0,0,-1.3333333,455.07867,527.33093)"
       clip-path="url(#clipPath38)" />
  </g>
</svg>
